<svg width="16" height="16" viewBox="0 0 14 14" fill="none" xmlns="http://www.w3.org/2000/svg"><path d="M7 .25a6.75 6.75 0 000 13.5 1.123 1.123 0 00.832-1.883 1.127 1.127 0 01-.284-.742c0-.623.502-1.125 1.124-1.125H10c2.07 0 3.75-1.68 3.75-3.75 0-3.315-3.023-6-6.75-6zM2.875 7A1.123 1.123 0 011.75 5.875c0-.622.502-1.125 1.125-1.125S4 5.253 4 5.875 3.498 7 2.875 7zm2.25-3A1.123 1.123 0 014 2.875c0-.623.503-1.125 1.125-1.125s1.125.502 1.125 1.125S5.747 4 5.125 4zm3.75 0A1.123 1.123 0 017.75 2.875c0-.623.502-1.125 1.125-1.125S10 2.252 10 2.875 9.498 4 8.875 4zm2.25 3A1.123 1.123 0 0110 5.875c0-.622.502-1.125 1.125-1.125s1.125.503 1.125 1.125S11.748 7 11.125 7z" fill="#2563EB"/></svg>